<svg xmlns="http://www.w3.org/2000/svg" viewBox="0 0 48 48" aria-hidden="true">
  <path fill="#EA4335" d="M24 9.5c3.2 0 6.1 1.1 8.4 3.2l6.3-6.3C34.9 2.9 29.8.8 24 .8 14.7.8 6.7 6.1 2.8 13.8l7.4 5.7C12 13.6 17.5 9.5 24 9.5z"/>
  <path fill="#4285F4" d="M46.6 24.5c0-1.7-.2-3.4-.5-5H24v9.4h12.7c-.6 3-2.3 5.5-4.9 7.2l7.5 5.8c4.4-4.1 7.3-10.1 7.3-17.4z"/>
  <path fill="#FBBC05" d="M10.2 28.5c-.5-1.4-.8-2.9-.8-4.5s.3-3.1.8-4.5l-7.4-5.7C1.3 16.8.5 20.3.5 24s.8 7.2 2.3 10.2l7.4-5.7z"/>
  <path fill="#34A853" d="M24 47.2c5.8 0 10.7-1.9 14.3-5.3l-7.5-5.8c-2.1 1.4-4.8 2.2-6.8 2.2-6.5 0-12-4.1-13.8-9.8l-7.4 5.7C6.7 41.9 14.7 47.2 24 47.2z"/>
</svg>
