<svg xmlns="http://www.w3.org/2000/svg" viewBox="0 0 512 512" role="img" aria-label="TypeRace logo">
  <rect width="512" height="512" rx="0" fill="#ffffff"/>
  <g fill="#f20505">
    <path d="M116 152h322L390 192H253L159 360H90l94-168H70z"/>
    <path d="M262 210h122c31 0 56 8 75 25 19 17 29 38 29 64 0 27-10 49-30 66-19 16-45 25-78 25h-27l69 64h-72l-97-90h128c18 0 32-4 43-13 10-9 15-21 15-36 0-14-5-25-16-33-11-9-25-13-43-13H231z"/>
    <path d="M263 268h104c10 0 18 2 24 7 6 5 9 11 9 19 0 9-3 16-10 21-6 5-15 8-26 8H255l-39 39z"/>
  </g>
</svg>
